<?xml version="1.0" standalone="no"?>
<!DOCTYPE svg PUBLIC "-//W3C//DTD SVG 20010904//EN"
 "http://www.w3.org/TR/2001/REC-SVG-20010904/DTD/svg10.dtd">
<svg version="1.0" xmlns="http://www.w3.org/2000/svg"
 width="736.000000pt" height="600.000000pt" viewBox="0 0 736.000000 600.000000"
 preserveAspectRatio="xMidYMid meet">

<g transform="translate(0.000000,600.000000) scale(0.100000,-0.100000)"
fill="#000000" stroke="none">
<path d="M3330 5799 c-97 -10 -204 -26 -270 -41 -157 -34 -193 -42 -260 -63
-73 -22 -185 -62 -237 -86 -24 -10 -45 -19 -49 -19 -11 0 -246 -120 -274 -140
-15 -11 -31 -20 -35 -20 -10 0 -189 -125 -269 -188 -98 -78 -290 -273 -368
-373 -161 -207 -293 -448 -358 -654 -13 -38 -26 -79 -30 -90 -7 -18 -29 -106
-45 -180 -20 -91 -35 -231 -35 -320 0 -70 -4 -106 -13 -113 -6 -5 -43 -17 -82
-26 -38 -10 -78 -21 -87 -26 -10 -6 -27 -10 -37 -10 -11 0 -22 -4 -25 -9 -3
-4 -27 -16 -53 -26 -146 -56 -323 -195 -439 -346 -60 -78 -142 -239 -157 -309
-3 -14 -13 -56 -22 -95 -10 -44 -17 -113 -17 -185 0 -72 7 -141 17 -185 9 -38
19 -81 21 -95 6 -27 9 -35 53 -130 57 -123 110 -197 216 -302 167 -166 364
-262 652 -319 54 -11 63 -16 77 -46 63 -133 222 -329 371 -459 69 -60 226
-174 240 -174 4 0 19 -8 33 -18 140 -98 543 -252 762 -293 25 -4 96 -17 159
-29 63 -12 167 -27 230 -33 l115 -12 35 -60 c109 -186 333 -282 541 -231 78
19 103 31 168 75 73 49 115 98 155 181 29 60 31 73 31 170 0 96 -3 110 -29
165 -18 36 -56 86 -95 126 -98 99 -198 139 -345 139 -201 0 -353 -94 -436
-267 -40 -84 -41 -85 -72 -80 -18 3 -59 9 -92 12 -76 8 -270 43 -311 55 -17 6
-38 10 -48 10 -34 0 -338 101 -426 142 -36 16 -81 37 -100 46 -62 29 -205 117
-281 175 -125 93 -349 342 -349 386 0 7 22 11 60 11 l60 0 1 1028 c1 1157 6
1311 52 1482 46 170 132 371 210 489 51 77 130 184 164 221 17 19 41 48 54 64
46 58 228 210 349 290 104 69 240 142 348 187 12 5 32 13 45 19 41 18 206 70
254 81 361 78 678 79 1033 0 66 -14 243 -72 255 -82 5 -5 15 -9 23 -9 31 0
283 -133 383 -202 136 -93 185 -134 285 -233 165 -165 256 -290 351 -485 36
-74 69 -143 74 -152 5 -10 9 -27 9 -37 0 -11 4 -22 9 -25 5 -3 11 -18 14 -33
3 -16 10 -46 16 -68 59 -218 54 -109 60 -1375 l6 -1155 220 0 c238 1 289 7
437 56 224 73 426 216 562 399 49 67 146 257 146 287 0 12 4 24 9 27 10 7 21
72 29 185 9 112 -5 292 -28 346 -4 11 -16 43 -25 70 -35 100 -104 215 -188
316 -38 45 -169 162 -206 183 -10 6 -45 27 -77 46 -50 30 -108 57 -209 96 -11
4 -56 17 -100 28 l-80 21 -7 90 c-14 163 -29 289 -44 360 -117 558 -451 1048
-952 1399 -137 96 -349 209 -497 266 -11 4 -31 12 -45 18 -57 25 -300 97 -355
106 -16 2 -50 9 -75 14 -212 47 -534 64 -760 41z"/>
<path d="M4012 3192 c-11 -7 -149 -390 -169 -467 -2 -11 -8 -29 -13 -40 -5
-11 -11 -29 -13 -40 -3 -11 -42 -126 -87 -255 -45 -129 -84 -244 -87 -255 -2
-11 -8 -29 -13 -40 -5 -11 -10 -29 -13 -40 -3 -11 -23 -71 -45 -134 -23 -63
-39 -118 -36 -123 9 -14 230 -10 241 5 6 6 23 50 38 97 15 47 31 94 36 105 4
11 24 70 44 130 20 61 40 119 44 130 4 11 13 36 20 55 64 193 209 619 241 713
23 65 40 128 38 140 -3 21 -8 22 -108 25 -58 1 -111 -2 -118 -6z"/>
<path d="M2173 2944 c-91 -33 -183 -152 -183 -238 l0 -36 90 0 c78 0 90 2 90
17 0 33 42 104 71 118 70 37 150 5 169 -66 22 -82 -11 -152 -143 -307 -55 -64
-103 -119 -106 -122 -3 -3 -39 -42 -79 -87 l-73 -82 3 -58 3 -58 310 0 310 0
3 53 c5 83 6 82 -200 82 l-179 0 12 23 c10 18 160 200 179 217 4 3 31 37 62
76 71 90 92 150 86 247 -7 110 -64 185 -167 222 -56 19 -201 19 -258 -1z"/>
<path d="M4517 2953 c-4 -3 -7 -35 -7 -70 l0 -63 220 0 c177 0 222 -3 226 -14
3 -7 -23 -53 -58 -102 -73 -104 -140 -234 -164 -319 -22 -78 -39 -312 -24
-343 9 -21 15 -23 92 -20 l83 3 7 135 c10 190 26 270 76 368 37 72 55 105 62
112 3 3 17 23 32 45 14 22 40 56 57 75 38 43 43 59 39 135 l-3 60 -316 3
c-173 1 -318 -1 -322 -5z"/>
<path d="M2945 2763 c-65 -104 -131 -207 -147 -231 -15 -24 -28 -45 -28 -48 0
-2 -20 -35 -46 -73 -42 -64 -45 -72 -42 -127 l3 -59 187 -3 187 -2 3 -98 3
-97 90 0 90 0 5 95 5 95 45 3 c52 4 60 12 60 69 0 64 -6 73 -55 73 -30 0 -45
5 -49 16 -3 9 -6 141 -6 295 l0 279 -93 0 -94 0 -118 -187z m115 -243 l0 -160
-100 0 c-84 0 -100 3 -100 16 0 15 186 304 195 304 3 0 5 -72 5 -160z"/>
</g>
</svg>
