<?xml version="1.0" standalone="no"?>
<!DOCTYPE svg PUBLIC "-//W3C//DTD SVG 20010904//EN"
 "http://www.w3.org/TR/2001/REC-SVG-20010904/DTD/svg10.dtd">
<svg version="1.0" xmlns="http://www.w3.org/2000/svg"
 width="736.000000pt" height="736.000000pt" viewBox="0 0 736.000000 736.000000"
 preserveAspectRatio="xMidYMid meet">

<g transform="translate(0.000000,736.000000) scale(0.100000,-0.100000)"
fill="#000000" stroke="none">
<path d="M3078 6575 c-26 -14 -58 -39 -71 -57 -24 -32 -57 -114 -57 -142 0
-33 -73 -156 -122 -204 -119 -117 -209 -153 -393 -157 -124 -2 -142 -6 -204
-53 -42 -31 -81 -113 -81 -171 0 -24 14 -84 31 -134 29 -84 31 -98 27 -196 -8
-180 -71 -293 -226 -406 -91 -65 -128 -114 -138 -181 -15 -101 23 -177 123
-244 123 -84 203 -194 233 -319 19 -80 9 -233 -19 -296 -29 -63 -38 -150 -21
-200 16 -50 75 -114 125 -136 29 -14 65 -19 135 -19 279 -1 463 -137 540 -400
58 -197 245 -250 403 -115 178 153 465 152 648 -1 94 -79 184 -95 277 -48 69
34 97 73 132 185 56 179 155 287 323 351 38 15 89 22 188 27 128 6 139 8 185
37 101 62 129 175 78 310 -32 84 -43 215 -24 295 30 133 117 254 235 328 78
49 116 108 123 186 8 102 -29 168 -137 239 -200 133 -280 371 -201 596 46 132
39 212 -25 288 -50 60 -94 74 -230 77 -174 3 -271 40 -378 144 -68 66 -101
122 -138 234 -47 149 -112 207 -232 207 -71 0 -99 -11 -169 -66 -208 -163
-461 -165 -656 -6 -30 24 -69 50 -88 58 -53 22 -141 17 -196 -11z m852 -539
c112 -24 195 -54 300 -106 128 -65 227 -136 325 -236 465 -472 472 -1213 17
-1696 -121 -128 -249 -217 -414 -287 -401 -171 -855 -113 -1209 153 -420 317
-592 880 -417 1374 147 417 505 722 943 803 121 23 338 20 455 -5z"/>
<path d="M3558 5780 c-169 -27 -356 -109 -474 -208 -175 -147 -293 -347 -335
-569 -18 -95 -6 -329 20 -423 82 -285 307 -530 582 -634 154 -58 363 -74 524
-41 360 75 649 354 737 711 16 68 21 119 21 219 0 155 -23 263 -82 391 -22 46
-42 84 -44 84 -3 0 -190 -213 -417 -472 -227 -260 -428 -487 -447 -504 -43
-40 -90 -50 -140 -29 -41 17 -453 419 -479 467 -45 86 20 198 115 198 57 0 87
-22 247 -181 l160 -159 390 445 c214 245 390 450 392 455 5 15 -137 115 -227
160 -154 77 -385 115 -543 90z"/>
<path d="M2389 3378 c-9 -7 -105 -260 -213 -563 -108 -302 -283 -793 -390
-1090 -106 -297 -192 -541 -191 -543 2 -2 184 44 405 102 221 58 418 106 438
106 21 -1 47 -6 59 -13 12 -7 159 -149 328 -316 168 -167 307 -302 309 -300 2
2 112 494 245 1094 133 600 245 1098 247 1108 8 25 -16 21 -63 -10 -22 -16
-69 -47 -103 -71 -227 -152 -544 -87 -692 142 -22 34 -52 103 -69 157 -33 106
-66 151 -135 184 -49 23 -153 31 -175 13z"/>
<path d="M4850 3380 c-45 -13 -87 -38 -116 -73 -32 -35 -40 -52 -73 -160 -92
-296 -435 -436 -707 -288 -32 17 -60 29 -62 26 -8 -7 -61 -248 -62 -276 0 -14
32 -167 70 -340 39 -173 129 -577 201 -899 71 -322 132 -592 135 -599 3 -10
108 87 312 291 169 168 317 311 329 317 46 24 57 21 697 -148 105 -28 191 -49
192 -48 2 2 -35 95 -375 937 -128 316 -293 728 -368 915 -75 187 -139 343
-142 346 -3 4 -17 3 -31 -1z"/>
</g>
</svg>
