<?xml version="1.0" standalone="no"?>
<!DOCTYPE svg PUBLIC "-//W3C//DTD SVG 20010904//EN"
 "http://www.w3.org/TR/2001/REC-SVG-20010904/DTD/svg10.dtd">
<svg version="1.0" xmlns="http://www.w3.org/2000/svg"
 width="512.000000pt" height="512.000000pt" viewBox="0 0 512.000000 512.000000"
 preserveAspectRatio="xMidYMid meet">

<g transform="translate(0.000000,512.000000) scale(0.100000,-0.100000)"
fill="#000000" stroke="none">
<path d="M830 4119 c-110 -19 -196 -76 -236 -156 -16 -32 -19 -62 -19 -196 0
-155 1 -159 24 -178 22 -18 49 -19 730 -19 l706 0 51 -24 c58 -27 106 -80 123
-135 6 -21 11 -72 11 -114 0 -62 -5 -83 -27 -127 -35 -65 -91 -106 -162 -120
-33 -6 -319 -10 -741 -10 -785 0 -715 9 -715 -95 0 -112 -43 -103 539 -107
568 -3 552 -1 625 -84 48 -55 65 -113 59 -207 -8 -116 -65 -198 -157 -226 -26
-7 -185 -11 -510 -11 -517 0 -531 -1 -552 -57 -7 -18 -9 -133 -7 -333 4 -341
5 -350 76 -424 54 -56 107 -77 217 -83 135 -8 142 -5 150 65 18 154 65 259
161 362 118 125 251 182 424 182 173 0 306 -57 424 -182 96 -103 137 -195 163
-370 l8 -55 585 -3 c657 -3 610 -8 610 73 0 177 146 395 321 478 98 46 166 62
270 60 154 -2 293 -60 402 -168 96 -95 150 -207 172 -360 l11 -80 180 0 c171
0 181 1 228 25 27 14 64 42 82 64 60 70 64 95 64 435 0 396 -14 493 -81 574
-36 44 -57 54 -208 96 -141 39 -211 72 -250 117 -17 19 -89 151 -161 293 -149
296 -178 335 -310 399 l-75 37 -207 5 c-113 3 -210 9 -215 13 -4 5 -10 117
-13 250 l-5 242 -28 47 c-15 26 -41 57 -58 69 -71 50 -32 49 -1373 48 -693 -1
-1275 -5 -1306 -10z m3173 -877 c115 -57 147 -98 280 -366 65 -131 116 -241
112 -244 -4 -4 -180 -7 -391 -7 -331 0 -386 2 -394 15 -11 18 -14 623 -3 634
4 4 80 6 168 4 159 -3 161 -3 228 -36z"/>
<path d="M390 3453 c-71 -23 -90 -55 -90 -154 0 -67 2 -73 34 -105 l34 -34
830 0 830 0 31 25 c40 34 55 83 46 151 -8 63 -44 107 -96 118 -37 7 -1597 7
-1619 -1z"/>
<path d="M63 2704 c-46 -23 -66 -72 -61 -150 3 -44 10 -69 23 -85 45 -50 35
-49 808 -49 399 0 739 3 756 6 18 4 45 20 62 36 27 28 29 35 29 107 0 85 -12
111 -60 136 -25 13 -133 15 -777 15 -659 0 -752 -2 -780 -16z"/>
<path d="M1493 1875 c-178 -48 -305 -188 -335 -369 -22 -135 26 -280 127 -381
258 -258 697 -114 757 249 51 307 -250 581 -549 501z m163 -250 c54 -16 106
-62 123 -108 6 -16 11 -51 11 -78 0 -110 -79 -189 -190 -189 -111 0 -190 79
-190 190 0 92 48 159 131 185 57 18 57 18 115 0z"/>
<path d="M3881 1879 c-175 -34 -323 -190 -351 -371 -29 -191 71 -383 244 -468
251 -124 561 17 631 285 83 322 -197 618 -524 554z m180 -265 c40 -20 87 -79
99 -125 43 -157 -120 -289 -273 -221 -136 60 -144 271 -12 340 63 33 129 35
186 6z"/>
</g>
</svg>
